<?xml version="1.0" encoding="UTF-8" standalone="no"?>
<!-- Created with Inkscape (http://www.inkscape.org/) -->

<svg
   version="1.1"
   id="svg1"
   width="600"
   height="600"
   viewBox="0 0 599.99999 600.00001"
   sodipodi:docname="pmog.svg"
   inkscape:version="1.3 (0e150ed6c4, 2023-07-21)"
   inkscape:export-filename="pmog.png"
   inkscape:export-xdpi="96"
   inkscape:export-ydpi="96"
   xmlns:inkscape="http://www.inkscape.org/namespaces/inkscape"
   xmlns:sodipodi="http://sodipodi.sourceforge.net/DTD/sodipodi-0.dtd"
   xmlns="http://www.w3.org/2000/svg"
   xmlns:svg="http://www.w3.org/2000/svg">
  <defs
     id="defs1" />
  <sodipodi:namedview
     id="namedview1"
     pagecolor="#ffffff"
     bordercolor="#000000"
     borderopacity="0.25"
     inkscape:showpageshadow="2"
     inkscape:pageopacity="0.0"
     inkscape:pagecheckerboard="0"
     inkscape:deskcolor="#d1d1d1"
     showgrid="false"
     inkscape:zoom="1"
     inkscape:cx="234.5"
     inkscape:cy="175.5"
     inkscape:window-width="1920"
     inkscape:window-height="1011"
     inkscape:window-x="0"
     inkscape:window-y="0"
     inkscape:window-maximized="1"
     inkscape:current-layer="g1"
     showguides="false" />
  <g
     inkscape:groupmode="layer"
     inkscape:label="Image"
     id="g1">
    <path
       id="rect22"
       style="opacity:1;fill:#1d1d1d;fill-opacity:1;stroke-width:6.86689"
       d="M -3.5776727e-5,0 V 600 H 85.142295 514.86278 600 V 0 H 514.86278 85.142295 Z" />
    <ellipse
       style="display:none;opacity:0.379857;fill:#025598;stroke-width:2.633"
       id="ellipse3"
       ry="67.538818"
       rx="75.481544"
       cy="120.53599"
       cx="135.25735" />
    <ellipse
       style="display:none;opacity:0.379857;fill:#025598;stroke-width:2.633"
       id="path3"
       ry="35.916164"
       rx="49.673244"
       cy="120.53599"
       cx="135.25735" />
    <path
       id="rect13"
       style="opacity:1;fill:#1b58ff;fill-opacity:1;stroke-width:13.5629"
       d="M 300.00195 0 L 300.00195 3.8554688 L 300.00195 125.05664 A 196.85656 176.14186 0 0 1 408.51953 154.46875 C 434.63769 112.41213 469.95932 62.811186 514.76172 0 L 511.63867 0 L 300.00195 0 z M 408.5957 154.50391 C 392.83645 179.88268 380.47748 202.52784 371.52344 223.52539 A 129.54828 93.669686 0 0 1 429.54688 301.22461 A 129.54828 93.669686 0 0 1 371.98242 379.08398 C 372.27589 379.76335 372.60366 380.45783 372.9043 381.14062 C 374.69755 385.20935 376.60284 389.33431 378.65039 393.53516 C 379.17768 394.61801 379.71561 395.70657 380.25977 396.79883 C 382.53902 401.36957 384.9444 406.01365 387.51953 410.76172 C 390.7737 416.76725 394.2498 422.91238 397.97656 429.23633 C 399.21486 431.33576 400.61775 433.56366 401.9082 435.70117 C 404.30574 439.67244 406.65099 443.60103 409.22852 447.71094 A 196.85656 176.14186 0 0 0 496.85547 301.22461 A 196.85656 176.14186 0 0 0 408.5957 154.50391 z M 300.00195 207.52539 L 300.00195 394.85938 A 129.54828 93.669686 0 0 0 371.8457 379.07227 C 347.8697 323.63264 347.72425 279.07832 371.4375 223.48828 A 129.54828 93.669686 0 0 0 300.00195 207.52539 z M 409.11523 447.69141 A 196.85656 176.14186 0 0 1 300.00195 477.32617 L 300.00195 598.59961 L 300.00195 600 L 511.63867 600 L 514.76172 600 C 470.29395 538.16643 435.17684 489.24973 409.11523 447.69141 z " />
    <path
       style="display:none;opacity:0.379857;fill:#025598;stroke-width:2.633"
       d="m 217.64262,235.09486 c -82.38527,-114.55887 -82.38527,-114.55887 0,-230.0597788"
       id="path13"
       sodipodi:nodetypes="cc" />
    <path
       id="ellipse14"
       style="display:none;opacity:0.379857;fill:#025598;stroke-width:2.633"
       d="m 162.73242,90.623047 c -9.12871,21.344033 -9.09887,38.436623 0.084,59.701173 A 49.673244,35.916164 0 0 0 184.9297,120.53516 49.673244,35.916164 0 0 0 162.73243,90.623047 Z" />
    <path
       id="ellipse15"
       style="display:none;opacity:0.379857;fill:#025598;stroke-width:2.633"
       d="m 135.25781,52.998047 a 75.481544,67.538818 0 0 0 -75.482419,67.537113 75.481544,67.538818 0 0 0 75.482419,67.53906 75.481544,67.538818 0 0 0 75.48047,-67.53906 75.481544,67.538818 0 0 0 -75.48047,-67.537113 z m 0,31.621094 a 49.673244,35.916164 0 0 1 49.67188,35.916019 49.673244,35.916164 0 0 1 -49.67188,35.91796 49.673244,35.916164 0 0 1 -49.673826,-35.91796 49.673244,35.916164 0 0 1 49.673826,-35.916019 z" />
    <path
       id="path18"
       style="display:none;opacity:0.379857;fill:#025598;stroke-width:2.633"
       d="M 135.23047,52.984376 V 84.60547 a 49.673244,35.916164 0 0 1 27.45117,6.136718 c 3.42797,-8.054793 8.16413,-16.740302 14.20118,-26.470703 A 75.481544,67.538818 0 0 0 135.23047,52.984376 Z m 27.61719,97.382814 a 49.673244,35.916164 0 0 1 -27.61719,6.07226 v 31.6211 a 75.481544,67.538818 0 0 0 41.89258,-11.37891 c -6.05575,-9.66565 -10.81504,-18.30026 -14.27539,-26.31445 z" />
    <path
       id="rect23"
       style="opacity:1;fill:#ffff68;fill-opacity:1;stroke-width:2.5867"
       d="M -3.5776727e-5,0 V 600 H 85.137202 h 0.0053 C 129.6474,538.11468 164.78536,489.16464 190.85338,447.58428 A 196.85656,176.14186 0 0 1 103.14378,301.22506 196.85656,176.14186 0 0 1 191.40349,154.49908 C 165.28339,112.43612 129.95568,62.826594 85.142295,0 h -0.0053 z M 300.7768,125.08766 a 196.85656,176.14186 0 0 0 -108.62973,29.43688 c 15.74465,25.37692 28.09664,48.02893 37.03682,69.03584 a 129.54827,93.669686 0 0 1 71.59291,-16.00462 z m -98.05506,48.19214 c 3.15028,5.40008 6.11659,10.6668 8.92429,15.83143 -2.80841,-5.16112 -5.77286,-10.43324 -8.92429,-15.83143 z m 25.70318,50.11248 a 129.54828,93.669686 0 0 0 -16.40195,9.4897 129.54828,93.669686 0 0 0 -0.76407,0.56032 129.54828,93.669686 0 0 0 -12.71405,10.06019 129.54828,93.669686 0 0 0 -2.46028,2.41953 129.54828,93.669686 0 0 0 -8.64413,9.60683 129.54828,93.669686 0 0 0 -2.51123,3.37208 129.54828,93.669686 0 0 0 -5.98009,9.85133 129.54828,93.669686 0 0 0 -1.96109,3.83563 129.54828,93.669686 0 0 0 -3.7643,10.69182 129.54828,93.669686 0 0 0 -1.04932,3.48923 129.54828,93.669686 0 0 0 -1.72169,14.45612 129.54828,93.669686 0 0 0 2.33804,16.50888 129.54828,93.669686 0 0 0 1.14611,3.82543 129.54828,93.669686 0 0 0 5.88838,13.86524 129.54828,93.669686 0 0 0 1.04933,2.06296 129.54828,93.669686 0 0 0 11.33363,15.22019 129.54828,93.669686 0 0 0 1.13081,1.11552 129.54828,93.669686 0 0 0 14.10465,12.36768 129.54828,93.669686 0 0 0 2.16486,1.60963 129.54828,93.669686 0 0 0 18.52095,11.11461 c 0.0182,-0.0449 0.0368,-0.0877 0.0561,-0.13249 0.28809,-0.66796 0.52878,-1.31665 0.80992,-1.98149 1.17379,-2.7757 2.3293,-5.5423 3.38226,-8.26717 1.30405,-3.37454 2.51819,-6.7133 3.63697,-10.01945 v -0.005 c 0.0388,-0.11475 0.0683,-0.22664 0.10692,-0.34128 1.07452,-3.19191 2.07314,-6.35667 2.97476,-9.49478 1.70155,-5.92254 3.0556,-11.75235 4.14124,-17.53275 0.10301,-0.548 0.24385,-1.10335 0.34129,-1.65038 0.56472,-3.172 1.03746,-6.32847 1.41606,-9.47443 0.001,-0.009 0.002,-0.0209 0.005,-0.0305 0.37682,-3.13589 0.65884,-6.26206 0.85067,-9.38272 3e-4,-0.005 -3.3e-4,-0.009 0,-0.0157 0.0182,-0.27871 0.009,-0.55674 0.0261,-0.83537 0.51074,-9.10435 0.25481,-18.17338 -0.8099,-27.33316 -0.36601,-3.14886 -0.82312,-6.30828 -1.37532,-9.4846 -0.55216,-3.17604 -1.1973,-6.3672 -1.93562,-9.58139 -1.47017,-6.40013 -3.30817,-12.88413 -5.51659,-19.49893 -0.009,-0.03 -0.0209,-0.0616 -0.0305,-0.0918 -1.09897,-3.28723 -2.28954,-6.60749 -3.57076,-9.96342 -0.013,-0.0349 -0.0275,-0.072 -0.0407,-0.10702 -0.46116,-1.20638 -0.99758,-2.44625 -1.48227,-3.66243 -0.86205,-2.163 -1.69697,-4.31371 -2.6335,-6.50983 a 129.54828,93.669686 0 0 0 -0.005,0 c -0.0182,-0.0429 -0.0326,-0.0845 -0.0508,-0.12736 z m 0.32599,155.67064 c -9.02464,20.901 -21.43697,43.42031 -37.23037,68.62832 a 196.85656,176.14186 0 0 0 109.25626,29.67631 v -82.46812 a 129.54827,93.669686 0 0 1 -72.02589,-15.83651 z" />
  </g>
</svg>
