<?xml version="1.0" encoding="UTF-8" standalone="no"?>
<!-- Created with Inkscape (http://www.inkscape.org/) -->

<svg
   version="1.1"
   id="svg1"
   width="600"
   height="600"
   viewBox="0 0 599.99999 600.00001"
   sodipodi:docname="pmog.svg"
   inkscape:version="1.3 (0e150ed6c4, 2023-07-21)"
   inkscape:export-filename="pmog.png"
   inkscape:export-xdpi="96"
   inkscape:export-ydpi="96"
   xml:space="preserve"
   xmlns:inkscape="http://www.inkscape.org/namespaces/inkscape"
   xmlns:sodipodi="http://sodipodi.sourceforge.net/DTD/sodipodi-0.dtd"
   xmlns="http://www.w3.org/2000/svg"
   xmlns:svg="http://www.w3.org/2000/svg"><defs
     id="defs1" /><sodipodi:namedview
     id="namedview1"
     pagecolor="#ffffff"
     bordercolor="#000000"
     borderopacity="0.25"
     inkscape:showpageshadow="2"
     inkscape:pageopacity="0.0"
     inkscape:pagecheckerboard="0"
     inkscape:deskcolor="#d1d1d1"
     showgrid="false"
     inkscape:zoom="0.86782422"
     inkscape:cx="1958.922"
     inkscape:cy="188.40221"
     inkscape:window-width="1920"
     inkscape:window-height="1011"
     inkscape:window-x="0"
     inkscape:window-y="0"
     inkscape:window-maximized="1"
     inkscape:current-layer="g5"
     showguides="false"><inkscape:page
       x="0"
       y="0"
       width="600"
       height="600"
       id="page1"
       margin="0"
       bleed="0" /><inkscape:page
       x="610"
       y="0"
       width="600"
       height="600"
       id="page2" /><inkscape:page
       x="1220"
       y="0"
       width="600"
       height="600"
       id="page3" /><inkscape:page
       x="1830"
       y="0"
       width="600"
       height="600"
       id="page4"
       inkscape:export-filename="./lab-logo.png"
       inkscape:export-xdpi="24"
       inkscape:export-ydpi="24" /></sodipodi:namedview><g
     inkscape:groupmode="layer"
     inkscape:label="Image"
     id="g1"><path
       id="rect22"
       style="opacity:1;fill:#1d1d1d;fill-opacity:1;stroke-width:6.86689"
       d="M -3.5776727e-5,0 V 600 H 85.142295 514.86278 600 V 0 H 514.86278 85.142295 Z" /><ellipse
       style="display:none;opacity:0.379857;fill:#025598;stroke-width:2.633"
       id="ellipse3"
       ry="67.538818"
       rx="75.481544"
       cy="120.53599"
       cx="135.25735" /><ellipse
       style="display:none;opacity:0.379857;fill:#025598;stroke-width:2.633"
       id="path3"
       ry="35.916164"
       rx="49.673244"
       cy="120.53599"
       cx="135.25735" /><path
       id="rect13"
       style="opacity:1;fill:#1b58ff;fill-opacity:1;stroke-width:13.5629"
       d="M 300.00195 0 L 300.00195 3.8554688 L 300.00195 125.05664 A 196.85656 176.14186 0 0 1 408.51953 154.46875 C 434.63769 112.41213 469.95932 62.811186 514.76172 0 L 511.63867 0 L 300.00195 0 z M 408.5957 154.50391 C 392.83645 179.88268 380.47748 202.52784 371.52344 223.52539 A 129.54828 93.669686 0 0 1 429.54688 301.22461 A 129.54828 93.669686 0 0 1 371.98242 379.08398 C 372.27589 379.76335 372.60366 380.45783 372.9043 381.14062 C 374.69755 385.20935 376.60284 389.33431 378.65039 393.53516 C 379.17768 394.61801 379.71561 395.70657 380.25977 396.79883 C 382.53902 401.36957 384.9444 406.01365 387.51953 410.76172 C 390.7737 416.76725 394.2498 422.91238 397.97656 429.23633 C 399.21486 431.33576 400.61775 433.56366 401.9082 435.70117 C 404.30574 439.67244 406.65099 443.60103 409.22852 447.71094 A 196.85656 176.14186 0 0 0 496.85547 301.22461 A 196.85656 176.14186 0 0 0 408.5957 154.50391 z M 300.00195 207.52539 L 300.00195 394.85938 A 129.54828 93.669686 0 0 0 371.8457 379.07227 C 347.8697 323.63264 347.72425 279.07832 371.4375 223.48828 A 129.54828 93.669686 0 0 0 300.00195 207.52539 z M 409.11523 447.69141 A 196.85656 176.14186 0 0 1 300.00195 477.32617 L 300.00195 598.59961 L 300.00195 600 L 511.63867 600 L 514.76172 600 C 470.29395 538.16643 435.17684 489.24973 409.11523 447.69141 z " /><path
       style="display:none;opacity:0.379857;fill:#025598;stroke-width:2.633"
       d="m 217.64262,235.09486 c -82.38527,-114.55887 -82.38527,-114.55887 0,-230.0597788"
       id="path13"
       sodipodi:nodetypes="cc" /><path
       id="ellipse14"
       style="display:none;opacity:0.379857;fill:#025598;stroke-width:2.633"
       d="m 162.73242,90.623047 c -9.12871,21.344033 -9.09887,38.436623 0.084,59.701173 A 49.673244,35.916164 0 0 0 184.9297,120.53516 49.673244,35.916164 0 0 0 162.73243,90.623047 Z" /><path
       id="ellipse15"
       style="display:none;opacity:0.379857;fill:#025598;stroke-width:2.633"
       d="m 135.25781,52.998047 a 75.481544,67.538818 0 0 0 -75.482419,67.537113 75.481544,67.538818 0 0 0 75.482419,67.53906 75.481544,67.538818 0 0 0 75.48047,-67.53906 75.481544,67.538818 0 0 0 -75.48047,-67.537113 z m 0,31.621094 a 49.673244,35.916164 0 0 1 49.67188,35.916019 49.673244,35.916164 0 0 1 -49.67188,35.91796 49.673244,35.916164 0 0 1 -49.673826,-35.91796 49.673244,35.916164 0 0 1 49.673826,-35.916019 z" /><path
       id="path18"
       style="display:none;opacity:0.379857;fill:#025598;stroke-width:2.633"
       d="M 135.23047,52.984376 V 84.60547 a 49.673244,35.916164 0 0 1 27.45117,6.136718 c 3.42797,-8.054793 8.16413,-16.740302 14.20118,-26.470703 A 75.481544,67.538818 0 0 0 135.23047,52.984376 Z m 27.61719,97.382814 a 49.673244,35.916164 0 0 1 -27.61719,6.07226 v 31.6211 a 75.481544,67.538818 0 0 0 41.89258,-11.37891 c -6.05575,-9.66565 -10.81504,-18.30026 -14.27539,-26.31445 z" /><path
       id="rect23"
       style="opacity:1;fill:#ffff68;fill-opacity:1;stroke-width:2.5867"
       d="M -3.5776727e-5,0 V 600 H 85.137202 h 0.0053 C 129.6474,538.11468 164.78536,489.16464 190.85338,447.58428 A 196.85656,176.14186 0 0 1 103.14378,301.22506 196.85656,176.14186 0 0 1 191.40349,154.49908 C 165.28339,112.43612 129.95568,62.826594 85.142295,0 h -0.0053 z M 300.7768,125.08766 a 196.85656,176.14186 0 0 0 -108.62973,29.43688 c 15.74465,25.37692 28.09664,48.02893 37.03682,69.03584 a 129.54827,93.669686 0 0 1 71.59291,-16.00462 z m -98.05506,48.19214 c 3.15028,5.40008 6.11659,10.6668 8.92429,15.83143 -2.80841,-5.16112 -5.77286,-10.43324 -8.92429,-15.83143 z m 25.70318,50.11248 a 129.54828,93.669686 0 0 0 -16.40195,9.4897 129.54828,93.669686 0 0 0 -0.76407,0.56032 129.54828,93.669686 0 0 0 -12.71405,10.06019 129.54828,93.669686 0 0 0 -2.46028,2.41953 129.54828,93.669686 0 0 0 -8.64413,9.60683 129.54828,93.669686 0 0 0 -2.51123,3.37208 129.54828,93.669686 0 0 0 -5.98009,9.85133 129.54828,93.669686 0 0 0 -1.96109,3.83563 129.54828,93.669686 0 0 0 -3.7643,10.69182 129.54828,93.669686 0 0 0 -1.04932,3.48923 129.54828,93.669686 0 0 0 -1.72169,14.45612 129.54828,93.669686 0 0 0 2.33804,16.50888 129.54828,93.669686 0 0 0 1.14611,3.82543 129.54828,93.669686 0 0 0 5.88838,13.86524 129.54828,93.669686 0 0 0 1.04933,2.06296 129.54828,93.669686 0 0 0 11.33363,15.22019 129.54828,93.669686 0 0 0 1.13081,1.11552 129.54828,93.669686 0 0 0 14.10465,12.36768 129.54828,93.669686 0 0 0 2.16486,1.60963 129.54828,93.669686 0 0 0 18.52095,11.11461 c 0.0182,-0.0449 0.0368,-0.0877 0.0561,-0.13249 0.28809,-0.66796 0.52878,-1.31665 0.80992,-1.98149 1.17379,-2.7757 2.3293,-5.5423 3.38226,-8.26717 1.30405,-3.37454 2.51819,-6.7133 3.63697,-10.01945 v -0.005 c 0.0388,-0.11475 0.0683,-0.22664 0.10692,-0.34128 1.07452,-3.19191 2.07314,-6.35667 2.97476,-9.49478 1.70155,-5.92254 3.0556,-11.75235 4.14124,-17.53275 0.10301,-0.548 0.24385,-1.10335 0.34129,-1.65038 0.56472,-3.172 1.03746,-6.32847 1.41606,-9.47443 0.001,-0.009 0.002,-0.0209 0.005,-0.0305 0.37682,-3.13589 0.65884,-6.26206 0.85067,-9.38272 3e-4,-0.005 -3.3e-4,-0.009 0,-0.0157 0.0182,-0.27871 0.009,-0.55674 0.0261,-0.83537 0.51074,-9.10435 0.25481,-18.17338 -0.8099,-27.33316 -0.36601,-3.14886 -0.82312,-6.30828 -1.37532,-9.4846 -0.55216,-3.17604 -1.1973,-6.3672 -1.93562,-9.58139 -1.47017,-6.40013 -3.30817,-12.88413 -5.51659,-19.49893 -0.009,-0.03 -0.0209,-0.0616 -0.0305,-0.0918 -1.09897,-3.28723 -2.28954,-6.60749 -3.57076,-9.96342 -0.013,-0.0349 -0.0275,-0.072 -0.0407,-0.10702 -0.46116,-1.20638 -0.99758,-2.44625 -1.48227,-3.66243 -0.86205,-2.163 -1.69697,-4.31371 -2.6335,-6.50983 a 129.54828,93.669686 0 0 0 -0.005,0 c -0.0182,-0.0429 -0.0326,-0.0845 -0.0508,-0.12736 z m 0.32599,155.67064 c -9.02464,20.901 -21.43697,43.42031 -37.23037,68.62832 a 196.85656,176.14186 0 0 0 109.25626,29.67631 v -82.46812 a 129.54827,93.669686 0 0 1 -72.02589,-15.83651 z" /></g><g
     inkscape:groupmode="layer"
     id="layer1"
     inkscape:label="Image 2"><path
       id="rect22-3"
       style="fill:#1d1d1d;fill-opacity:1;stroke-width:6.86689"
       d="M 610.00005,0 V 600 H 695.14238 1124.8628 1210 V 0 h -85.1372 -429.72042 z" /><path
       id="rect13-5"
       style="fill:none;fill-opacity:1;stroke:#ffffff;stroke-width:5;stroke-dasharray:none;stroke-opacity:1"
       d="m 610,0 v 600 h 85.13672 0.006 C 739.64773,538.11474 774.78552,489.1643 800.85352,447.58398 746.13526,414.96512 713.2301,360.05577 713.14453,301.22461 713.21543,242.16993 746.35574,187.07778 801.4043,154.5 775.28422,112.43708 739.95592,62.826527 695.14258,0 h -0.006 z M 910.00195,0 V 3.8554688 125.05664 c 0.19013,0.0128 0.38023,0.0258 0.57032,0.0391 -38.58281,0.0925 -76.28837,10.32124 -108.42579,29.42969 15.74464,25.3769 28.09694,48.02827 37.03711,69.03516 20.94756,-10.21305 45.56673,-15.75327 70.81836,-15.98047 v 187.2793 c 25.57827,-0.0188 50.57645,-5.51192 71.84375,-15.78711 -23.97593,-55.43958 -24.12139,-99.994 -0.4082,-155.58399 -20.98377,-10.19797 -45.63605,-15.73336 -70.91797,-15.92383 0.0862,-5.2e-4 -0.60382,0.0166 -0.51758,0.0156 v -82.52363 c 38.34319,0.18874 76.56551,10.44564 108.51755,29.41211 C 1044.6376,112.41217 1079.9594,62.811127 1124.7617,0 h -3.123 z m 108.59375,154.50391 c -15.7592,25.37874 -28.11827,48.02395 -37.07226,69.02148 36.07086,17.26995 57.83846,46.41904 58.02346,77.69922 -0.01,31.27404 -21.6033,60.48188 -57.56448,77.85937 0.2934,0.67937 0.62128,1.37386 0.92188,2.05664 1.7933,4.06873 3.69859,8.19369 5.74609,12.39454 0.5273,1.08285 1.06528,2.17141 1.60938,3.26367 2.27929,4.57073 4.68456,9.21482 7.25976,13.96289 3.25407,6.00552 6.73027,12.15066 10.45707,18.47461 1.2383,2.09943 2.6412,4.32733 3.9316,6.46484 2.3976,3.97127 4.7427,7.89986 7.3203,12.00977 54.7287,-32.66083 87.6073,-87.62407 87.627,-146.48633 -0.073,-59.05289 -33.2129,-114.14394 -88.2598,-146.7207 z m -180.16992,68.88867 c -5.81357,2.83698 -11.29933,6.01119 -16.40234,9.49023 -0.25577,0.186 -0.51007,0.37105 -0.76367,0.5586 -4.57022,3.12573 -8.82028,6.4884 -12.71485,10.06054 -0.83792,0.79695 -1.65878,1.60397 -2.46094,2.41993 -3.14987,3.07169 -6.03511,6.28057 -8.64257,9.60742 -0.86877,1.11153 -1.70651,2.23481 -2.51172,3.37109 -2.25274,3.19823 -4.24978,6.48767 -5.98047,9.85156 -0.69222,1.26807 -1.34592,2.54723 -1.96094,3.83594 -1.54421,3.50737 -2.80053,7.07709 -3.76367,10.69141 -0.3804,1.15815 -0.7317,2.32244 -1.05078,3.49023 -1.08998,4.77927 -1.66462,9.61143 -1.72071,14.45508 0.10229,5.54213 0.88457,11.06766 2.3379,16.50977 0.34514,1.28077 0.72763,2.55499 1.14648,3.82421 1.46422,4.72484 3.4332,9.36048 5.88867,13.86524 0.33861,0.6906 0.68791,1.37979 1.04883,2.06445 3.12098,5.31514 6.91537,10.40879 11.33398,15.21875 0.37313,0.37385 0.75013,0.74737 1.13086,1.11719 4.20414,4.40639 8.92184,8.54362 14.10352,12.36719 0.7127,0.54278 1.43553,1.0791 2.16602,1.60937 5.68324,4.11242 11.88223,7.83397 18.51953,11.11524 0.0182,-0.0449 0.0373,-0.088 0.0566,-0.13282 0.28809,-0.66796 0.5294,-1.31758 0.81054,-1.98242 1.17379,-2.7757 2.3279,-5.54271 3.38086,-8.26758 1.30405,-3.37453 2.5199,-6.71338 3.63867,-10.01953 v -0.004 c 0.0388,-0.11475 0.0668,-0.22716 0.10547,-0.3418 1.07452,-3.19191 2.07299,-6.35604 2.97461,-9.49414 1.70155,-5.92254 3.05694,-11.75281 4.14258,-17.53321 0.10301,-0.54799 0.24241,-1.10336 0.33984,-1.65039 0.56472,-3.17199 1.03742,-6.32865 1.41602,-9.47461 10e-4,-0.009 0.003,-0.0197 0.006,-0.0293 0.37682,-3.13589 0.65973,-6.26216 0.85156,-9.38281 3e-4,-0.005 -3.3e-4,-0.009 0,-0.0156 0.0182,-0.27871 0.008,-0.55731 0.0254,-0.83594 0.51074,-9.10434 0.25417,-18.17421 -0.81054,-27.33398 -0.36601,-3.14886 -0.8228,-6.30806 -1.375,-9.48438 -0.55216,-3.17603 -1.19723,-6.36589 -1.93555,-9.58007 -1.47017,-6.40013 -3.30721,-12.88521 -5.51563,-19.5 -0.009,-0.03 -0.0217,-0.0616 -0.0312,-0.0918 -1.09896,-3.28723 -2.28909,-6.60697 -3.57031,-9.96289 -0.013,-0.0349 -0.0278,-0.0724 -0.041,-0.10742 -0.46116,-1.20638 -0.99774,-2.44593 -1.48243,-3.66211 -0.86204,-2.163 -1.69628,-4.31365 -2.63281,-6.50977 h -0.006 c -0.0182,-0.0429 -0.0326,-0.0841 -0.0508,-0.12695 z m 0.32617,155.66992 c -9.02463,20.90098 -21.43708,43.42092 -37.23047,68.62891 32.12677,19.20377 69.85613,29.49694 108.48047,29.65039 V 598.59961 600 h 211.63675 3.123 c -44.4677,-61.83351 -79.5849,-110.75032 -105.6465,-152.30859 -32.09352,19.14541 -70.5413,29.49908 -109.11325,29.65039 l 0,-82.48238 c -25.64736,-0.007 -49.93878,-5.47937 -71.25,-15.79692 z"
       sodipodi:nodetypes="ccccccccccccccccccccccccccccccccccccscccscccccccccccccccccccccsscccsscscsccsssccccsccssccccccccccc" /></g><g
     inkscape:groupmode="layer"
     id="layer2"
     inkscape:label="Image 3"><path
       id="rect22-3-7"
       style="fill:#f5f5f5;fill-opacity:1;stroke-width:6.86689"
       d="m 1220.0001,0 v 600 h 85.1423 429.7204 H 1820 V 0 h -85.1372 -429.7204 z" /><path
       id="rect13-5-0"
       style="fill:none;fill-opacity:1;stroke:#000000;stroke-width:3.43452;stroke-dasharray:none;stroke-opacity:1"
       d="m 1329.9712,107.39424 v 385.21155 h 62.569 0.012 c 32.7078,-39.73153 58.5314,-71.15865 77.6893,-97.85402 -40.2136,-20.94194 -64.3965,-56.19479 -64.4593,-93.96554 0.052,-37.91423 24.4076,-73.28445 64.8642,-94.20002 -19.1963,-27.0052 -45.1599,-58.85613 -78.0942,-99.19197 h -0.012 z m 220.4784,0 v 2.47529 77.81348 c 0.1397,0.009 0.2793,0.0165 0.4191,0.0251 -28.3554,0.0594 -56.066,6.62643 -79.6846,18.89443 11.5711,16.29245 20.6491,30.83508 27.2194,44.3219 15.395,-6.55698 33.488,-10.1139 52.0461,-10.25977 v 120.23691 c 18.798,-0.0121 37.1697,-3.53875 52.7996,-10.13563 -17.6205,-35.59327 -17.7274,-64.19806 -0.3,-99.8879 -15.4215,-6.5473 -33.539,-10.10113 -52.1193,-10.2234 0.063,-3.5e-4 -0.4437,0.0107 -0.3803,0.01 v -52.98172 c 28.1792,0.12117 56.2698,6.70629 79.7521,18.88313 19.1947,-27.00102 45.1535,-58.84584 78.0797,-99.1718 h -2.2951 z m 79.8079,99.19449 c -11.5817,16.29364 -20.6648,30.83229 -27.2452,44.31312 26.5093,11.08763 42.5069,29.80191 42.6429,49.88438 -0.012,20.07854 -15.8769,38.83054 -42.3055,49.98722 0.2156,0.43618 0.4565,0.88205 0.6775,1.3204 1.3178,2.61222 2.7182,5.26052 4.223,7.95754 0.3875,0.69522 0.7828,1.39409 1.1827,2.09534 1.6751,2.9345 3.4428,5.91608 5.3354,8.96445 2.3915,3.85564 4.9462,7.80096 7.685,11.86105 0.9102,1.34788 1.9412,2.77822 2.8895,4.15056 1.7621,2.54962 3.4855,5.07184 5.3799,7.7105 40.2213,-20.96889 64.3845,-56.25636 64.3991,-94.04706 -0.053,-37.91309 -24.409,-73.2826 -64.8643,-94.1975 z m -132.4109,44.22785 c -4.2726,1.8214 -8.3042,3.8593 -12.0545,6.09292 -0.188,0.11941 -0.3749,0.23821 -0.5612,0.35863 -3.3588,2.00678 -6.4823,4.16568 -9.3444,6.45906 -0.6159,0.51165 -1.2191,1.02978 -1.8086,1.55364 -2.315,1.97208 -4.4354,4.03225 -6.3517,6.16815 -0.6385,0.71362 -1.2541,1.43478 -1.846,2.16431 -1.6554,2.05332 -3.1232,4.16519 -4.3951,6.32489 -0.5087,0.81412 -0.9891,1.63537 -1.4411,2.46274 -1.1349,2.2518 -2.0581,4.54363 -2.7661,6.86408 -0.2795,0.74356 -0.5377,1.49105 -0.7722,2.24081 -0.801,3.06838 -1.2234,6.17072 -1.2646,9.28044 0.075,3.55814 0.6501,7.10564 1.7182,10.59959 0.2538,0.82228 0.5348,1.64035 0.8426,2.45521 1.076,3.03344 2.5232,6.0096 4.3277,8.90175 0.2489,0.44339 0.5056,0.88585 0.7708,1.32541 2.2937,3.41243 5.0824,6.68264 8.3297,9.77073 0.2741,0.24002 0.5512,0.47984 0.8311,0.71727 3.0897,2.82898 6.5568,5.48516 10.365,7.93996 0.5237,0.34848 1.0549,0.69281 1.5918,1.03325 4.1767,2.64026 8.7325,5.02957 13.6104,7.13621 0.013,-0.0288 0.027,-0.0565 0.042,-0.0853 0.2116,-0.42884 0.389,-0.84592 0.5956,-1.27276 0.8626,-1.78205 1.7109,-3.55852 2.4847,-5.30794 0.9585,-2.16652 1.852,-4.31012 2.6742,-6.43273 v -0.002 c 0.029,-0.0736 0.05,-0.14582 0.078,-0.21942 0.7899,-2.04928 1.5237,-4.08071 2.1863,-6.09542 1.2505,-3.80239 2.2465,-7.54554 3.0444,-11.25667 0.075,-0.35181 0.178,-0.70837 0.2498,-1.05958 0.415,-2.03648 0.7624,-4.06312 1.0407,-6.08288 0,-0.005 0,-0.0126 0.012,-0.0189 0.2769,-2.01331 0.4849,-4.02043 0.6259,-6.02395 2e-4,-0.003 -3e-4,-0.005 0,-0.01 0.013,-0.17894 0.012,-0.3578 0.018,-0.53669 0.3753,-5.84516 0.1868,-11.6682 -0.5957,-17.54895 -0.269,-2.02162 -0.6048,-4.04989 -1.0106,-6.08915 -0.4056,-2.03907 -0.8798,-4.08702 -1.4223,-6.15058 -1.0805,-4.109 -2.4306,-8.27256 -4.0537,-12.51938 -0.012,-0.0193 -0.016,-0.0395 -0.023,-0.0589 -0.8077,-2.11046 -1.6823,-4.2418 -2.6239,-6.39636 -0.012,-0.0224 -0.021,-0.0465 -0.03,-0.069 -0.3389,-0.77452 -0.7333,-1.57033 -1.0895,-2.35115 -0.6336,-1.38868 -1.2466,-2.76944 -1.9349,-4.17939 h -0.012 c -0.013,-0.0275 -0.024,-0.054 -0.037,-0.0815 z m 0.2397,99.94308 c -6.6324,13.41882 -15.7546,27.87707 -27.3615,44.06109 23.6107,12.32919 51.3388,18.9376 79.7248,19.03612 v 77.84986 0.89906 h 155.5367 2.2951 c -32.6802,-39.6983 -58.4887,-71.10384 -77.6421,-97.78504 -23.5861,12.29172 -51.8423,18.93897 -80.1897,19.03612 v -52.95528 c -18.8489,-0.004 -36.7012,-3.51786 -52.3633,-10.14193 z"
       sodipodi:nodetypes="ccccccccccccccccccccccccccccccccccccscccscccccccccccccccccccccsscccsscscsccsssccccsccssccccccccccc" /></g><g
     inkscape:groupmode="layer"
     id="g5"
     inkscape:label="Image 4"><path
       id="path4"
       style="fill:#f5f5f5;fill-opacity:1;stroke-width:6.86689"
       d="m 1830.0001,0 v 600 h 85.1423 429.7204 H 2430 V 0 h -85.1372 -429.7204 z" /><path
       id="path15"
       style="fill:#61dba4;fill-opacity:1;stroke:#000000;stroke-width:5.25757;stroke-dasharray:none;stroke-opacity:1"
       d="M 2176.5659,5.1591122 V 8.9472505 128.06579 c 43.1368,0.18549 86.1377,10.26556 122.0846,28.90586 29.3832,-41.33316 69.1218,-90.08159 119.525,-151.8125378 h -3.513 z M 2298.7371,157.00453 c -17.7293,24.94231 -31.6351,47.2002 -41.7084,67.83666 40.5805,16.97296 65.0692,45.62146 65.2774,76.36371 -0.018,30.73626 -24.3032,59.44054 -64.7602,76.51919 0.3301,0.66771 0.6991,1.35011 1.0375,2.02114 2.0173,3.9988 4.1605,8.05203 6.4641,12.18064 0.5932,1.06424 1.1997,2.13464 1.8118,3.20811 2.5643,4.49213 5.2682,9.05695 8.1654,13.7234 3.6609,5.90221 7.5724,11.94216 11.7649,18.15736 1.3933,2.06332 2.9734,4.25264 4.4251,6.35343 2.6973,3.90294 5.3341,7.76465 8.2341,11.8039 61.5706,-32.09918 98.5588,-86.11714 98.5812,-143.96717 -0.082,-58.03738 -37.3639,-112.18383 -99.2929,-144.20037 z m -121.5881,52.14894 c 0.097,-5.4e-4 -0.6801,0.0157 -0.5831,0.0149 V 393.2294 c 28.776,-0.0186 56.9013,-5.41879 80.8276,-15.51732 -26.9736,-54.48612 -27.1383,-98.27283 -0.4604,-152.9068 -23.6073,-10.02261 -51.3414,-15.46468 -79.7841,-15.65185 z m 122.1712,235.99767 c -36.1057,18.81617 -79.3601,28.99333 -122.7543,29.14206 v 119.17236 1.37533 h 238.0966 3.513 c -50.0267,-60.77013 -89.5353,-108.84616 -118.8553,-149.68975 z" /><path
       id="path14"
       style="fill:#3888de;fill-opacity:1;stroke:#000000;stroke-width:5.25757;stroke-dasharray:none;stroke-opacity:1"
       d="M 1839.0569,5.1591122 V 594.84089 h 95.7828 0.018 c 50.0692,-60.82099 89.6003,-108.92912 118.9272,-149.79439 -61.559,-32.0579 -98.5809,-86.02217 -98.677,-143.8416 0.08,-58.03905 37.3649,-112.18581 99.2959,-144.20335 C 2025.018,115.66199 1985.2735,66.905185 1934.8576,5.1591122 h -0.018 z m 337.509,122.9664778 c -43.1816,0.18865 -85.3637,10.21603 -121.34,28.90287 17.7131,24.94045 31.6118,47.2 41.6696,67.84562 23.5666,-10.03743 51.2616,-15.48237 79.6704,-15.70567 z m -80.5256,96.58406 c -6.5405,2.78818 -12.7093,5.90909 -18.4503,9.32833 -0.2878,0.18279 -0.5758,0.3628 -0.8611,0.54714 -5.1416,3.07197 -9.9221,6.37671 -14.3034,9.88741 -0.9429,0.78324 -1.8662,1.578 -2.7687,2.37993 -3.5437,3.01886 -6.7894,6.17231 -9.7228,9.44194 -0.9775,1.09242 -1.9194,2.19598 -2.8254,3.31275 -2.5341,3.14323 -4.7832,6.37505 -6.7302,9.68113 -0.7787,1.24626 -1.5117,2.50365 -2.2036,3.77019 -1.7373,3.44707 -3.1529,6.9572 -4.2367,10.50931 -0.4278,1.13825 -0.8218,2.28164 -1.1809,3.42937 -1.2261,4.69708 -1.8744,9.4474 -1.9374,14.20775 0.1147,5.44682 0.9961,10.87737 2.6311,16.22591 0.3885,1.25875 0.8204,2.51086 1.2915,3.75824 1.6471,4.64357 3.8603,9.19744 6.6226,13.62474 0.381,0.67875 0.7751,1.35723 1.181,2.03011 3.5112,5.22375 7.7807,10.23097 12.7517,14.95821 0.4197,0.36741 0.8421,0.73381 1.2706,1.09728 4.7297,4.3306 10.0376,8.39593 15.8672,12.15372 0.8017,0.53345 1.6149,1.0605 2.4368,1.58164 6.3937,4.04168 13.369,7.70006 20.8361,10.92491 0.02,-0.0441 0.04,-0.0875 0.063,-0.13156 0.3239,-0.65646 0.5957,-1.29598 0.9119,-1.94939 1.3204,-2.72796 2.6186,-5.4454 3.8031,-8.12341 1.4673,-3.31651 2.8376,-6.59929 4.0962,-9.84855 v -0.003 c 0.044,-0.11267 0.074,-0.22219 0.1166,-0.33486 1.2091,-3.13701 2.3344,-6.24718 3.3486,-9.33132 1.9143,-5.8207 3.4397,-11.54948 4.6611,-17.23049 0.1149,-0.53854 0.2729,-1.08586 0.3828,-1.62349 0.6353,-3.11742 1.1645,-6.21853 1.5905,-9.31039 0,-0.007 -3e-4,-0.0202 0.018,-0.0299 0.424,-3.08198 0.7439,-6.1537 0.9598,-9.2207 2e-4,-0.004 -6e-4,-0.007 0,-0.0149 0.02,-0.27392 0.018,-0.54836 0.026,-0.82221 0.5745,-8.94779 0.2858,-17.86155 -0.9119,-26.86379 -0.4119,-3.0947 -0.9246,-6.20066 -1.5459,-9.32233 -0.6208,-3.12142 -1.3462,-6.25616 -2.1767,-9.41504 -1.654,-6.29006 -3.7221,-12.66389 -6.2068,-19.16494 -0.018,-0.0295 -0.025,-0.06 -0.036,-0.0897 -1.2365,-3.2307 -2.5739,-6.49357 -4.0153,-9.79174 -0.018,-0.0343 -0.034,-0.0702 -0.048,-0.10466 -0.5188,-1.18563 -1.12,-2.4045 -1.6654,-3.59979 -0.9699,-2.12577 -1.9092,-4.23991 -2.9628,-6.39826 h -0.018 c -0.02,-0.0421 -0.037,-0.0834 -0.057,-0.12558 z m 0.3678,152.99352 c -10.153,20.5415 -24.1169,42.6735 -41.8848,67.44797 36.1433,18.87353 78.5892,28.99124 122.0426,29.14206 v -81.06376 c -28.8539,-0.006 -56.1823,-5.38616 -80.1578,-15.52627 z" /></g></svg>
