<?xml version="1.0" encoding="UTF-8" standalone="no"?>
<!-- Created with Inkscape (http://www.inkscape.org/) -->

<svg
   version="1.1"
   id="svg1"
   width="600"
   height="600"
   viewBox="0 0 599.99999 600.00001"
   sodipodi:docname="pmog.svg"
   inkscape:version="1.3 (0e150ed6c4, 2023-07-21)"
   inkscape:export-filename="pmog.png"
   inkscape:export-xdpi="96"
   inkscape:export-ydpi="96"
   xml:space="preserve"
   xmlns:inkscape="http://www.inkscape.org/namespaces/inkscape"
   xmlns:sodipodi="http://sodipodi.sourceforge.net/DTD/sodipodi-0.dtd"
   xmlns="http://www.w3.org/2000/svg"
   xmlns:svg="http://www.w3.org/2000/svg"><defs
     id="defs1" /><sodipodi:namedview
     id="namedview1"
     pagecolor="#ffffff"
     bordercolor="#000000"
     borderopacity="0.25"
     inkscape:showpageshadow="2"
     inkscape:pageopacity="0.0"
     inkscape:pagecheckerboard="0"
     inkscape:deskcolor="#d1d1d1"
     showgrid="false"
     inkscape:zoom="0.96243201"
     inkscape:cx="2070.7956"
     inkscape:cy="253.00489"
     inkscape:window-width="1920"
     inkscape:window-height="1011"
     inkscape:window-x="0"
     inkscape:window-y="0"
     inkscape:window-maximized="1"
     inkscape:current-layer="g5"
     showguides="false"><inkscape:page
       x="0"
       y="0"
       width="600"
       height="600"
       id="page1"
       margin="0"
       bleed="0" /><inkscape:page
       x="610"
       y="0"
       width="600"
       height="600"
       id="page2" /><inkscape:page
       x="1220"
       y="0"
       width="600"
       height="600"
       id="page3" /><inkscape:page
       x="1830"
       y="0"
       width="600"
       height="600"
       id="page4"
       inkscape:export-filename="./pmog-b-g.png"
       inkscape:export-xdpi="96"
       inkscape:export-ydpi="96" /></sodipodi:namedview><g
     inkscape:groupmode="layer"
     inkscape:label="Image"
     id="g1"><path
       id="rect22"
       style="opacity:1;fill:#1d1d1d;fill-opacity:1;stroke-width:6.86689"
       d="M -3.5776727e-5,0 V 600 H 85.142295 514.86278 600 V 0 H 514.86278 85.142295 Z" /><ellipse
       style="display:none;opacity:0.379857;fill:#025598;stroke-width:2.633"
       id="ellipse3"
       ry="67.538818"
       rx="75.481544"
       cy="120.53599"
       cx="135.25735" /><ellipse
       style="display:none;opacity:0.379857;fill:#025598;stroke-width:2.633"
       id="path3"
       ry="35.916164"
       rx="49.673244"
       cy="120.53599"
       cx="135.25735" /><path
       id="rect13"
       style="opacity:1;fill:#1b58ff;fill-opacity:1;stroke-width:13.5629"
       d="M 300.00195 0 L 300.00195 3.8554688 L 300.00195 125.05664 A 196.85656 176.14186 0 0 1 408.51953 154.46875 C 434.63769 112.41213 469.95932 62.811186 514.76172 0 L 511.63867 0 L 300.00195 0 z M 408.5957 154.50391 C 392.83645 179.88268 380.47748 202.52784 371.52344 223.52539 A 129.54828 93.669686 0 0 1 429.54688 301.22461 A 129.54828 93.669686 0 0 1 371.98242 379.08398 C 372.27589 379.76335 372.60366 380.45783 372.9043 381.14062 C 374.69755 385.20935 376.60284 389.33431 378.65039 393.53516 C 379.17768 394.61801 379.71561 395.70657 380.25977 396.79883 C 382.53902 401.36957 384.9444 406.01365 387.51953 410.76172 C 390.7737 416.76725 394.2498 422.91238 397.97656 429.23633 C 399.21486 431.33576 400.61775 433.56366 401.9082 435.70117 C 404.30574 439.67244 406.65099 443.60103 409.22852 447.71094 A 196.85656 176.14186 0 0 0 496.85547 301.22461 A 196.85656 176.14186 0 0 0 408.5957 154.50391 z M 300.00195 207.52539 L 300.00195 394.85938 A 129.54828 93.669686 0 0 0 371.8457 379.07227 C 347.8697 323.63264 347.72425 279.07832 371.4375 223.48828 A 129.54828 93.669686 0 0 0 300.00195 207.52539 z M 409.11523 447.69141 A 196.85656 176.14186 0 0 1 300.00195 477.32617 L 300.00195 598.59961 L 300.00195 600 L 511.63867 600 L 514.76172 600 C 470.29395 538.16643 435.17684 489.24973 409.11523 447.69141 z " /><path
       style="display:none;opacity:0.379857;fill:#025598;stroke-width:2.633"
       d="m 217.64262,235.09486 c -82.38527,-114.55887 -82.38527,-114.55887 0,-230.0597788"
       id="path13"
       sodipodi:nodetypes="cc" /><path
       id="ellipse14"
       style="display:none;opacity:0.379857;fill:#025598;stroke-width:2.633"
       d="m 162.73242,90.623047 c -9.12871,21.344033 -9.09887,38.436623 0.084,59.701173 A 49.673244,35.916164 0 0 0 184.9297,120.53516 49.673244,35.916164 0 0 0 162.73243,90.623047 Z" /><path
       id="ellipse15"
       style="display:none;opacity:0.379857;fill:#025598;stroke-width:2.633"
       d="m 135.25781,52.998047 a 75.481544,67.538818 0 0 0 -75.482419,67.537113 75.481544,67.538818 0 0 0 75.482419,67.53906 75.481544,67.538818 0 0 0 75.48047,-67.53906 75.481544,67.538818 0 0 0 -75.48047,-67.537113 z m 0,31.621094 a 49.673244,35.916164 0 0 1 49.67188,35.916019 49.673244,35.916164 0 0 1 -49.67188,35.91796 49.673244,35.916164 0 0 1 -49.673826,-35.91796 49.673244,35.916164 0 0 1 49.673826,-35.916019 z" /><path
       id="path18"
       style="display:none;opacity:0.379857;fill:#025598;stroke-width:2.633"
       d="M 135.23047,52.984376 V 84.60547 a 49.673244,35.916164 0 0 1 27.45117,6.136718 c 3.42797,-8.054793 8.16413,-16.740302 14.20118,-26.470703 A 75.481544,67.538818 0 0 0 135.23047,52.984376 Z m 27.61719,97.382814 a 49.673244,35.916164 0 0 1 -27.61719,6.07226 v 31.6211 a 75.481544,67.538818 0 0 0 41.89258,-11.37891 c -6.05575,-9.66565 -10.81504,-18.30026 -14.27539,-26.31445 z" /><path
       id="rect23"
       style="opacity:1;fill:#ffff68;fill-opacity:1;stroke-width:2.5867"
       d="M -3.5776727e-5,0 V 600 H 85.137202 h 0.0053 C 129.6474,538.11468 164.78536,489.16464 190.85338,447.58428 A 196.85656,176.14186 0 0 1 103.14378,301.22506 196.85656,176.14186 0 0 1 191.40349,154.49908 C 165.28339,112.43612 129.95568,62.826594 85.142295,0 h -0.0053 z M 300.7768,125.08766 a 196.85656,176.14186 0 0 0 -108.62973,29.43688 c 15.74465,25.37692 28.09664,48.02893 37.03682,69.03584 a 129.54827,93.669686 0 0 1 71.59291,-16.00462 z m -98.05506,48.19214 c 3.15028,5.40008 6.11659,10.6668 8.92429,15.83143 -2.80841,-5.16112 -5.77286,-10.43324 -8.92429,-15.83143 z m 25.70318,50.11248 a 129.54828,93.669686 0 0 0 -16.40195,9.4897 129.54828,93.669686 0 0 0 -0.76407,0.56032 129.54828,93.669686 0 0 0 -12.71405,10.06019 129.54828,93.669686 0 0 0 -2.46028,2.41953 129.54828,93.669686 0 0 0 -8.64413,9.60683 129.54828,93.669686 0 0 0 -2.51123,3.37208 129.54828,93.669686 0 0 0 -5.98009,9.85133 129.54828,93.669686 0 0 0 -1.96109,3.83563 129.54828,93.669686 0 0 0 -3.7643,10.69182 129.54828,93.669686 0 0 0 -1.04932,3.48923 129.54828,93.669686 0 0 0 -1.72169,14.45612 129.54828,93.669686 0 0 0 2.33804,16.50888 129.54828,93.669686 0 0 0 1.14611,3.82543 129.54828,93.669686 0 0 0 5.88838,13.86524 129.54828,93.669686 0 0 0 1.04933,2.06296 129.54828,93.669686 0 0 0 11.33363,15.22019 129.54828,93.669686 0 0 0 1.13081,1.11552 129.54828,93.669686 0 0 0 14.10465,12.36768 129.54828,93.669686 0 0 0 2.16486,1.60963 129.54828,93.669686 0 0 0 18.52095,11.11461 c 0.0182,-0.0449 0.0368,-0.0877 0.0561,-0.13249 0.28809,-0.66796 0.52878,-1.31665 0.80992,-1.98149 1.17379,-2.7757 2.3293,-5.5423 3.38226,-8.26717 1.30405,-3.37454 2.51819,-6.7133 3.63697,-10.01945 v -0.005 c 0.0388,-0.11475 0.0683,-0.22664 0.10692,-0.34128 1.07452,-3.19191 2.07314,-6.35667 2.97476,-9.49478 1.70155,-5.92254 3.0556,-11.75235 4.14124,-17.53275 0.10301,-0.548 0.24385,-1.10335 0.34129,-1.65038 0.56472,-3.172 1.03746,-6.32847 1.41606,-9.47443 0.001,-0.009 0.002,-0.0209 0.005,-0.0305 0.37682,-3.13589 0.65884,-6.26206 0.85067,-9.38272 3e-4,-0.005 -3.3e-4,-0.009 0,-0.0157 0.0182,-0.27871 0.009,-0.55674 0.0261,-0.83537 0.51074,-9.10435 0.25481,-18.17338 -0.8099,-27.33316 -0.36601,-3.14886 -0.82312,-6.30828 -1.37532,-9.4846 -0.55216,-3.17604 -1.1973,-6.3672 -1.93562,-9.58139 -1.47017,-6.40013 -3.30817,-12.88413 -5.51659,-19.49893 -0.009,-0.03 -0.0209,-0.0616 -0.0305,-0.0918 -1.09897,-3.28723 -2.28954,-6.60749 -3.57076,-9.96342 -0.013,-0.0349 -0.0275,-0.072 -0.0407,-0.10702 -0.46116,-1.20638 -0.99758,-2.44625 -1.48227,-3.66243 -0.86205,-2.163 -1.69697,-4.31371 -2.6335,-6.50983 a 129.54828,93.669686 0 0 0 -0.005,0 c -0.0182,-0.0429 -0.0326,-0.0845 -0.0508,-0.12736 z m 0.32599,155.67064 c -9.02464,20.901 -21.43697,43.42031 -37.23037,68.62832 a 196.85656,176.14186 0 0 0 109.25626,29.67631 v -82.46812 a 129.54827,93.669686 0 0 1 -72.02589,-15.83651 z" /></g><g
     inkscape:groupmode="layer"
     id="layer1"
     inkscape:label="Image 2"><path
       id="rect22-3"
       style="fill:#1d1d1d;fill-opacity:1;stroke-width:6.86689"
       d="M 610.00005,0 V 600 H 695.14238 1124.8628 1210 V 0 h -85.1372 -429.72042 z" /><path
       id="rect13-5"
       style="fill:none;fill-opacity:1;stroke:#ffffff;stroke-width:5;stroke-dasharray:none;stroke-opacity:1"
       d="m 610,0 v 600 h 85.13672 0.006 C 739.64773,538.11474 774.78552,489.1643 800.85352,447.58398 746.13526,414.96512 713.2301,360.05577 713.14453,301.22461 713.21543,242.16993 746.35574,187.07778 801.4043,154.5 775.28422,112.43708 739.95592,62.826527 695.14258,0 h -0.006 z M 910.00195,0 V 3.8554688 125.05664 c 0.19013,0.0128 0.38023,0.0258 0.57032,0.0391 -38.58281,0.0925 -76.28837,10.32124 -108.42579,29.42969 15.74464,25.3769 28.09694,48.02827 37.03711,69.03516 20.94756,-10.21305 45.56673,-15.75327 70.81836,-15.98047 v 187.2793 c 25.57827,-0.0188 50.57645,-5.51192 71.84375,-15.78711 -23.97593,-55.43958 -24.12139,-99.994 -0.4082,-155.58399 -20.98377,-10.19797 -45.63605,-15.73336 -70.91797,-15.92383 0.0862,-5.2e-4 -0.60382,0.0166 -0.51758,0.0156 v -82.52363 c 38.34319,0.18874 76.56551,10.44564 108.51755,29.41211 C 1044.6376,112.41217 1079.9594,62.811127 1124.7617,0 h -3.123 z m 108.59375,154.50391 c -15.7592,25.37874 -28.11827,48.02395 -37.07226,69.02148 36.07086,17.26995 57.83846,46.41904 58.02346,77.69922 -0.01,31.27404 -21.6033,60.48188 -57.56448,77.85937 0.2934,0.67937 0.62128,1.37386 0.92188,2.05664 1.7933,4.06873 3.69859,8.19369 5.74609,12.39454 0.5273,1.08285 1.06528,2.17141 1.60938,3.26367 2.27929,4.57073 4.68456,9.21482 7.25976,13.96289 3.25407,6.00552 6.73027,12.15066 10.45707,18.47461 1.2383,2.09943 2.6412,4.32733 3.9316,6.46484 2.3976,3.97127 4.7427,7.89986 7.3203,12.00977 54.7287,-32.66083 87.6073,-87.62407 87.627,-146.48633 -0.073,-59.05289 -33.2129,-114.14394 -88.2598,-146.7207 z m -180.16992,68.88867 c -5.81357,2.83698 -11.29933,6.01119 -16.40234,9.49023 -0.25577,0.186 -0.51007,0.37105 -0.76367,0.5586 -4.57022,3.12573 -8.82028,6.4884 -12.71485,10.06054 -0.83792,0.79695 -1.65878,1.60397 -2.46094,2.41993 -3.14987,3.07169 -6.03511,6.28057 -8.64257,9.60742 -0.86877,1.11153 -1.70651,2.23481 -2.51172,3.37109 -2.25274,3.19823 -4.24978,6.48767 -5.98047,9.85156 -0.69222,1.26807 -1.34592,2.54723 -1.96094,3.83594 -1.54421,3.50737 -2.80053,7.07709 -3.76367,10.69141 -0.3804,1.15815 -0.7317,2.32244 -1.05078,3.49023 -1.08998,4.77927 -1.66462,9.61143 -1.72071,14.45508 0.10229,5.54213 0.88457,11.06766 2.3379,16.50977 0.34514,1.28077 0.72763,2.55499 1.14648,3.82421 1.46422,4.72484 3.4332,9.36048 5.88867,13.86524 0.33861,0.6906 0.68791,1.37979 1.04883,2.06445 3.12098,5.31514 6.91537,10.40879 11.33398,15.21875 0.37313,0.37385 0.75013,0.74737 1.13086,1.11719 4.20414,4.40639 8.92184,8.54362 14.10352,12.36719 0.7127,0.54278 1.43553,1.0791 2.16602,1.60937 5.68324,4.11242 11.88223,7.83397 18.51953,11.11524 0.0182,-0.0449 0.0373,-0.088 0.0566,-0.13282 0.28809,-0.66796 0.5294,-1.31758 0.81054,-1.98242 1.17379,-2.7757 2.3279,-5.54271 3.38086,-8.26758 1.30405,-3.37453 2.5199,-6.71338 3.63867,-10.01953 v -0.004 c 0.0388,-0.11475 0.0668,-0.22716 0.10547,-0.3418 1.07452,-3.19191 2.07299,-6.35604 2.97461,-9.49414 1.70155,-5.92254 3.05694,-11.75281 4.14258,-17.53321 0.10301,-0.54799 0.24241,-1.10336 0.33984,-1.65039 0.56472,-3.17199 1.03742,-6.32865 1.41602,-9.47461 10e-4,-0.009 0.003,-0.0197 0.006,-0.0293 0.37682,-3.13589 0.65973,-6.26216 0.85156,-9.38281 3e-4,-0.005 -3.3e-4,-0.009 0,-0.0156 0.0182,-0.27871 0.008,-0.55731 0.0254,-0.83594 0.51074,-9.10434 0.25417,-18.17421 -0.81054,-27.33398 -0.36601,-3.14886 -0.8228,-6.30806 -1.375,-9.48438 -0.55216,-3.17603 -1.19723,-6.36589 -1.93555,-9.58007 -1.47017,-6.40013 -3.30721,-12.88521 -5.51563,-19.5 -0.009,-0.03 -0.0217,-0.0616 -0.0312,-0.0918 -1.09896,-3.28723 -2.28909,-6.60697 -3.57031,-9.96289 -0.013,-0.0349 -0.0278,-0.0724 -0.041,-0.10742 -0.46116,-1.20638 -0.99774,-2.44593 -1.48243,-3.66211 -0.86204,-2.163 -1.69628,-4.31365 -2.63281,-6.50977 h -0.006 c -0.0182,-0.0429 -0.0326,-0.0841 -0.0508,-0.12695 z m 0.32617,155.66992 c -9.02463,20.90098 -21.43708,43.42092 -37.23047,68.62891 32.12677,19.20377 69.85613,29.49694 108.48047,29.65039 V 598.59961 600 h 211.63675 3.123 c -44.4677,-61.83351 -79.5849,-110.75032 -105.6465,-152.30859 -32.09352,19.14541 -70.5413,29.49908 -109.11325,29.65039 l 0,-82.48238 c -25.64736,-0.007 -49.93878,-5.47937 -71.25,-15.79692 z"
       sodipodi:nodetypes="ccccccccccccccccccccccccccccccccccccscccscccccccccccccccccccccsscccsscscsccsssccccsccssccccccccccc" /></g><g
     inkscape:groupmode="layer"
     id="layer2"
     inkscape:label="Image 3"><path
       id="rect22-3-7"
       style="fill:#f5f5f5;fill-opacity:1;stroke-width:6.86689"
       d="m 1220.0001,0 v 600 h 85.1423 429.7204 H 1820 V 0 h -85.1372 -429.7204 z" /><path
       id="rect13-5-0"
       style="fill:none;fill-opacity:1;stroke:#000000;stroke-width:3.43452;stroke-dasharray:none;stroke-opacity:1"
       d="m 1329.9712,107.39424 v 385.21155 h 62.569 0.012 c 32.7078,-39.73153 58.5314,-71.15865 77.6893,-97.85402 -40.2136,-20.94194 -64.3965,-56.19479 -64.4593,-93.96554 0.052,-37.91423 24.4076,-73.28445 64.8642,-94.20002 -19.1963,-27.0052 -45.1599,-58.85613 -78.0942,-99.19197 h -0.012 z m 220.4784,0 v 2.47529 77.81348 c 0.1397,0.009 0.2793,0.0165 0.4191,0.0251 -28.3554,0.0594 -56.066,6.62643 -79.6846,18.89443 11.5711,16.29245 20.6491,30.83508 27.2194,44.3219 15.395,-6.55698 33.488,-10.1139 52.0461,-10.25977 v 120.23691 c 18.798,-0.0121 37.1697,-3.53875 52.7996,-10.13563 -17.6205,-35.59327 -17.7274,-64.19806 -0.3,-99.8879 -15.4215,-6.5473 -33.539,-10.10113 -52.1193,-10.2234 0.063,-3.5e-4 -0.4437,0.0107 -0.3803,0.01 v -52.98172 c 28.1792,0.12117 56.2698,6.70629 79.7521,18.88313 19.1947,-27.00102 45.1535,-58.84584 78.0797,-99.1718 h -2.2951 z m 79.8079,99.19449 c -11.5817,16.29364 -20.6648,30.83229 -27.2452,44.31312 26.5093,11.08763 42.5069,29.80191 42.6429,49.88438 -0.012,20.07854 -15.8769,38.83054 -42.3055,49.98722 0.2156,0.43618 0.4565,0.88205 0.6775,1.3204 1.3178,2.61222 2.7182,5.26052 4.223,7.95754 0.3875,0.69522 0.7828,1.39409 1.1827,2.09534 1.6751,2.9345 3.4428,5.91608 5.3354,8.96445 2.3915,3.85564 4.9462,7.80096 7.685,11.86105 0.9102,1.34788 1.9412,2.77822 2.8895,4.15056 1.7621,2.54962 3.4855,5.07184 5.3799,7.7105 40.2213,-20.96889 64.3845,-56.25636 64.3991,-94.04706 -0.053,-37.91309 -24.409,-73.2826 -64.8643,-94.1975 z m -132.4109,44.22785 c -4.2726,1.8214 -8.3042,3.8593 -12.0545,6.09292 -0.188,0.11941 -0.3749,0.23821 -0.5612,0.35863 -3.3588,2.00678 -6.4823,4.16568 -9.3444,6.45906 -0.6159,0.51165 -1.2191,1.02978 -1.8086,1.55364 -2.315,1.97208 -4.4354,4.03225 -6.3517,6.16815 -0.6385,0.71362 -1.2541,1.43478 -1.846,2.16431 -1.6554,2.05332 -3.1232,4.16519 -4.3951,6.32489 -0.5087,0.81412 -0.9891,1.63537 -1.4411,2.46274 -1.1349,2.2518 -2.0581,4.54363 -2.7661,6.86408 -0.2795,0.74356 -0.5377,1.49105 -0.7722,2.24081 -0.801,3.06838 -1.2234,6.17072 -1.2646,9.28044 0.075,3.55814 0.6501,7.10564 1.7182,10.59959 0.2538,0.82228 0.5348,1.64035 0.8426,2.45521 1.076,3.03344 2.5232,6.0096 4.3277,8.90175 0.2489,0.44339 0.5056,0.88585 0.7708,1.32541 2.2937,3.41243 5.0824,6.68264 8.3297,9.77073 0.2741,0.24002 0.5512,0.47984 0.8311,0.71727 3.0897,2.82898 6.5568,5.48516 10.365,7.93996 0.5237,0.34848 1.0549,0.69281 1.5918,1.03325 4.1767,2.64026 8.7325,5.02957 13.6104,7.13621 0.013,-0.0288 0.027,-0.0565 0.042,-0.0853 0.2116,-0.42884 0.389,-0.84592 0.5956,-1.27276 0.8626,-1.78205 1.7109,-3.55852 2.4847,-5.30794 0.9585,-2.16652 1.852,-4.31012 2.6742,-6.43273 v -0.002 c 0.029,-0.0736 0.05,-0.14582 0.078,-0.21942 0.7899,-2.04928 1.5237,-4.08071 2.1863,-6.09542 1.2505,-3.80239 2.2465,-7.54554 3.0444,-11.25667 0.075,-0.35181 0.178,-0.70837 0.2498,-1.05958 0.415,-2.03648 0.7624,-4.06312 1.0407,-6.08288 0,-0.005 0,-0.0126 0.012,-0.0189 0.2769,-2.01331 0.4849,-4.02043 0.6259,-6.02395 2e-4,-0.003 -3e-4,-0.005 0,-0.01 0.013,-0.17894 0.012,-0.3578 0.018,-0.53669 0.3753,-5.84516 0.1868,-11.6682 -0.5957,-17.54895 -0.269,-2.02162 -0.6048,-4.04989 -1.0106,-6.08915 -0.4056,-2.03907 -0.8798,-4.08702 -1.4223,-6.15058 -1.0805,-4.109 -2.4306,-8.27256 -4.0537,-12.51938 -0.012,-0.0193 -0.016,-0.0395 -0.023,-0.0589 -0.8077,-2.11046 -1.6823,-4.2418 -2.6239,-6.39636 -0.012,-0.0224 -0.021,-0.0465 -0.03,-0.069 -0.3389,-0.77452 -0.7333,-1.57033 -1.0895,-2.35115 -0.6336,-1.38868 -1.2466,-2.76944 -1.9349,-4.17939 h -0.012 c -0.013,-0.0275 -0.024,-0.054 -0.037,-0.0815 z m 0.2397,99.94308 c -6.6324,13.41882 -15.7546,27.87707 -27.3615,44.06109 23.6107,12.32919 51.3388,18.9376 79.7248,19.03612 v 77.84986 0.89906 h 155.5367 2.2951 c -32.6802,-39.6983 -58.4887,-71.10384 -77.6421,-97.78504 -23.5861,12.29172 -51.8423,18.93897 -80.1897,19.03612 v -52.95528 c -18.8489,-0.004 -36.7012,-3.51786 -52.3633,-10.14193 z"
       sodipodi:nodetypes="ccccccccccccccccccccccccccccccccccccscccscccccccccccccccccccccsscccsscscsccsssccccsccssccccccccccc" /></g><g
     inkscape:groupmode="layer"
     id="g5"
     inkscape:label="Image 4"><path
       id="path4"
       style="fill:#f5f5f5;fill-opacity:1;stroke-width:6.86689"
       d="m 1830.0001,0 v 600 h 85.1423 429.7204 H 2430 V 0 h -85.1372 -429.7204 z" /><path
       id="path15"
       style="fill:#61dba4;fill-opacity:1;stroke:#000000;stroke-width:3.43452;stroke-dasharray:none;stroke-opacity:1"
       d="M 2160.4492 107.39453 L 2160.4492 109.86914 L 2160.4492 187.68359 C 2188.6284 187.80476 2216.7189 194.38959 2240.2012 206.56641 C 2259.3959 179.56543 2285.3552 147.72041 2318.2812 107.39453 L 2315.9863 107.39453 L 2160.4492 107.39453 z M 2240.2578 206.58789 C 2228.6761 222.88151 2219.5921 237.42153 2213.0117 250.90234 C 2239.521 261.98996 2255.5183 280.70466 2255.6543 300.78711 C 2255.6423 320.86563 2239.7782 339.61677 2213.3496 350.77344 C 2213.5652 351.20962 2213.8063 351.6554 2214.0273 352.09375 C 2215.3451 354.70597 2216.7452 357.35376 2218.25 360.05078 C 2218.6375 360.746 2219.0337 361.44524 2219.4336 362.14648 C 2221.1087 365.08098 2222.875 368.06296 2224.7676 371.11133 C 2227.1591 374.96696 2229.7143 378.91257 2232.4531 382.97266 C 2233.3633 384.32053 2234.3955 385.75071 2235.3438 387.12305 C 2237.1058 389.67266 2238.8283 392.19533 2240.7227 394.83398 C 2280.9439 373.86512 2305.1065 338.57777 2305.1211 300.78711 C 2305.0681 262.87406 2280.7131 227.50277 2240.2578 206.58789 z M 2160.8301 240.6543 C 2160.8931 240.65395 2160.3858 240.66456 2160.4492 240.66406 L 2160.4492 360.90234 C 2179.2472 360.89024 2197.6201 357.3625 2213.25 350.76562 C 2195.6295 315.17243 2195.5218 286.56867 2212.9492 250.87891 C 2197.5277 244.33161 2179.4104 240.77657 2160.8301 240.6543 z M 2240.6387 394.82031 C 2217.0526 407.11201 2188.7966 413.76027 2160.4492 413.85742 L 2160.4492 491.70703 L 2160.4492 492.60547 L 2315.9863 492.60547 L 2318.2812 492.60547 C 2285.6012 452.90725 2259.7921 421.50147 2240.6387 394.82031 z " /><path
       id="path14"
       style="fill:#3888de;fill-opacity:1;stroke:#000000;stroke-width:3.43452;stroke-dasharray:none;stroke-opacity:1"
       d="M 1939.9707 107.39453 L 1939.9707 492.60547 L 2002.541 492.60547 L 2002.5527 492.60547 C 2035.2605 452.87402 2061.0843 421.44728 2080.2422 394.75195 C 2040.0286 373.81005 2015.844 338.55778 2015.7812 300.78711 C 2015.8332 262.87296 2040.1899 227.50147 2080.6465 206.58594 C 2061.4502 179.58078 2035.487 147.73029 2002.5527 107.39453 L 2002.541 107.39453 L 1939.9707 107.39453 z M 2160.4492 187.72266 C 2132.2407 187.84589 2104.6852 194.3963 2081.1836 206.60352 C 2092.7547 222.89593 2101.834 237.43703 2108.4043 250.92383 C 2123.7993 244.36685 2141.8911 240.80993 2160.4492 240.66406 L 2160.4492 187.72266 z M 2107.8457 250.81641 C 2103.5731 252.63779 2099.5433 254.67654 2095.793 256.91016 C 2095.605 257.02957 2095.4168 257.14716 2095.2305 257.26758 C 2091.8717 259.27436 2088.7488 261.43318 2085.8867 263.72656 C 2085.2708 264.23821 2084.6676 264.75739 2084.0781 265.28125 C 2081.7631 267.25333 2079.6429 269.31332 2077.7266 271.44922 C 2077.0881 272.16284 2076.4728 272.88375 2075.8809 273.61328 C 2074.2255 275.6666 2072.7563 277.7778 2071.4844 279.9375 C 2070.9757 280.75162 2070.4969 281.57302 2070.0449 282.40039 C 2068.91 284.65219 2067.9853 286.94519 2067.2773 289.26562 C 2066.9978 290.00918 2066.7404 290.7561 2066.5059 291.50586 C 2065.7049 294.57424 2065.2814 297.67739 2065.2402 300.78711 C 2065.3152 304.34525 2065.8909 307.89277 2066.959 311.38672 C 2067.2128 312.209 2067.4949 313.02694 2067.8027 313.8418 C 2068.8787 316.87522 2070.3244 319.85004 2072.1289 322.74219 C 2072.3778 323.18558 2072.6352 323.6288 2072.9004 324.06836 C 2075.1941 327.48079 2077.9832 330.75177 2081.2305 333.83984 C 2081.5046 334.07986 2081.7806 334.31921 2082.0605 334.55664 C 2085.1502 337.38562 2088.6176 340.04131 2092.4258 342.49609 C 2092.9495 342.84457 2093.4807 343.18886 2094.0176 343.5293 C 2098.1943 346.16954 2102.751 348.55938 2107.6289 350.66602 C 2107.6419 350.63722 2107.6549 350.60888 2107.6699 350.58008 C 2107.8815 350.15124 2108.059 349.73348 2108.2656 349.30664 C 2109.1282 347.52459 2109.9762 345.74942 2110.75 344 C 2111.7085 341.83348 2112.6036 339.689 2113.4258 337.56641 L 2113.4258 337.56445 C 2113.4548 337.49085 2113.474 337.4193 2113.502 337.3457 C 2114.2919 335.29644 2115.0269 333.26471 2115.6895 331.25 C 2116.94 327.44761 2117.9365 323.70527 2118.7344 319.99414 C 2118.8094 319.64233 2118.9126 319.2848 2118.9844 318.93359 C 2119.3994 316.89713 2119.7451 314.87132 2120.0234 312.85156 C 2120.0234 312.84656 2120.0232 312.83833 2120.0352 312.83203 C 2120.3121 310.81872 2120.5211 308.81211 2120.6621 306.80859 C 2120.6623 306.80559 2120.6618 306.80383 2120.6621 306.79883 C 2120.6751 306.61989 2120.6737 306.44061 2120.6797 306.26172 C 2121.055 300.41656 2120.8665 294.59362 2120.084 288.71289 C 2119.815 286.69127 2119.48 284.66229 2119.0742 282.62305 C 2118.6686 280.58398 2118.1948 278.5362 2117.6523 276.47266 C 2116.5718 272.36366 2115.2208 268.19994 2113.5977 263.95312 C 2113.5857 263.93384 2113.5812 263.91393 2113.5742 263.89453 C 2112.7665 261.78407 2111.8928 259.65259 2110.9512 257.49805 C 2110.9392 257.47565 2110.9289 257.45219 2110.9199 257.42969 C 2110.581 256.65517 2110.1882 255.85894 2109.832 255.07812 C 2109.1984 253.68946 2108.5848 252.30839 2107.8965 250.89844 L 2107.8848 250.89844 C 2107.8718 250.87094 2107.8607 250.84391 2107.8477 250.81641 L 2107.8457 250.81641 z M 2108.0859 350.75977 C 2101.4535 364.17855 2092.3315 378.63633 2080.7246 394.82031 C 2104.3353 407.14948 2132.0632 413.7589 2160.4492 413.85742 L 2160.4492 360.90234 C 2141.6003 360.89834 2123.748 357.38382 2108.0859 350.75977 z " /></g></svg>
